<svg id="icon_기능_보안_외부링크숨김" xmlns="http://www.w3.org/2000/svg" width="44" height="44" viewBox="0 0 44 44">
  <rect id="BoundaryBG_ClearT_" data-name="BoundaryBG_ClearT       " width="44" height="44" fill="none"/>
  <g id="그룹_13040" data-name="그룹 13040" transform="translate(4.25 4.897)">
    <circle id="타원_401" data-name="타원 401" cx="8.022" cy="8.022" r="8.022" transform="translate(20.165 20.909)" fill="none" stroke="#6988ff" stroke-linecap="round" stroke-width="1.5"/>
    <line id="선_529" data-name="선 529" y1="10.585" x2="10.585" transform="translate(22.974 23.515)" fill="none" stroke="#6988ff" stroke-linecap="round" stroke-width="1.5"/>
    <path id="패스_13576" data-name="패스 13576" d="M17.713,35.1H4.174A3.346,3.346,0,0,1,.75,31.835V4.011A3.345,3.345,0,0,1,4.174.75h25.14a3.344,3.344,0,0,1,3.422,3.261v13.9" fill="none" stroke="#6988ff" stroke-linecap="round" stroke-width="1.5"/>
    <path id="패스_13577" data-name="패스 13577" d="M14.634,18.6l-2.366,2.366a4.3,4.3,0,0,1-6.082-6.083l2.366-2.364" transform="translate(1.834 1.349)" fill="none" stroke="#6988ff" stroke-linecap="round" stroke-width="1.5"/>
    <path id="패스_13578" data-name="패스 13578" d="M11.174,9.9,13.54,7.533a4.3,4.3,0,0,1,6.082,0h0a4.3,4.3,0,0,1,0,6.082L17.256,15.98" transform="translate(3.081 0.102)" fill="none" stroke="#6988ff" stroke-linecap="round" stroke-width="1.5"/>
    <line id="선_530" data-name="선 530" y1="4.591" x2="4.591" transform="translate(12.906 12.84)" fill="none" stroke="#6988ff" stroke-linecap="round" stroke-width="1.5"/>
  </g>
</svg>
