<svg id="public_한국석유공사" xmlns="http://www.w3.org/2000/svg" width="139.001" height="54" viewBox="0 0 139.001 54">
  <rect id="투명배경" width="139" height="54" transform="translate(0.001)" fill="none"/>
  <g id="그룹_5818" data-name="그룹 5818" transform="translate(0 12.283)">
    <path id="패스_6656" data-name="패스 6656" d="M289.314,35.951a4,4,0,0,0-4.307,0,1.851,1.851,0,0,0-.887,1.538,1.831,1.831,0,0,0,.887,1.529,4,4,0,0,0,4.307,0,1.832,1.832,0,0,0,.892-1.529,1.857,1.857,0,0,0-.892-1.538m-.932,2.35a2.049,2.049,0,0,1-1.213.352,2.12,2.12,0,0,1-1.235-.352.994.994,0,0,1-.5-.812,1.052,1.052,0,0,1,.5-.834,2.047,2.047,0,0,1,1.235-.366,1.96,1.96,0,0,1,1.213.366,1.022,1.022,0,0,1,.5.834.993.993,0,0,1-.5.812" transform="translate(-162.919 -20.572)" fill="#001a12"/>
    <path id="패스_6657" data-name="패스 6657" d="M241.239,27.158c.629,1.271,2.689,1.57,2.689,1.57v-.869a2.882,2.882,0,0,1-2.047-2.965V23.872H240.6v1.021a2.882,2.882,0,0,1-2.047,2.965v.869s2.06-.3,2.689-1.57" transform="translate(-137.668 -14.226)" fill="#001a12"/>
    <path id="패스_6658" data-name="패스 6658" d="M201.184,37.422H199.9V39.4a.9.9,0,0,0,.312.727,1.183,1.183,0,0,0,.785.263h5.016v-.959h-4.829Z" transform="translate(-116.251 -21.736)" fill="#001a12"/>
    <path id="패스_6659" data-name="패스 6659" d="M262.826,27.46a3.584,3.584,0,0,0,2.256.718,3.65,3.65,0,0,0,2.269-.718,2.1,2.1,0,0,0,0-3.491,3.575,3.575,0,0,0-2.269-.727,3.537,3.537,0,0,0-2.256.727,2.1,2.1,0,0,0,0,3.491m.9-2.8a2.354,2.354,0,0,1,2.72,0,1.274,1.274,0,0,1,0,2.1,2.1,2.1,0,0,1-1.364.437,2.063,2.063,0,0,1-1.356-.437,1.292,1.292,0,0,1,0-2.1" transform="translate(-150.601 -13.879)" fill="#001a12"/>
    <path id="패스_6660" data-name="패스 6660" d="M288.7,26.125a7.012,7.012,0,0,1-.04.762,2.2,2.2,0,0,1-.169.655h.9a2.072,2.072,0,0,0,.6-1.462V23.922H283.16v.959H288.7Z" transform="translate(-162.387 -14.255)" fill="#001a12"/>
    <path id="패스_6661" data-name="패스 6661" d="M212.014,23.612H210.73V30.18h1.284V26.559h1.391V25.6h-1.391Z" transform="translate(-122.251 -14.083)" fill="#001a12"/>
    <path id="패스_6662" data-name="패스 6662" d="M201,28.232a1.9,1.9,0,0,0,0-3.063,2.718,2.718,0,0,0-.266-.183h1.091v-.959h-2.06v-.776h-1.284v.776H196.42v.959h1.1a2.737,2.737,0,0,0-.264.183,1.9,1.9,0,0,0,0,3.063,3.093,3.093,0,0,0,3.75,0M197.762,26.7a1.08,1.08,0,0,1,.388-.834,1.423,1.423,0,0,1,.972-.343,1.454,1.454,0,0,1,.981.343,1.07,1.07,0,0,1,0,1.663,1.56,1.56,0,0,1-1.953,0,1.078,1.078,0,0,1-.388-.829" transform="translate(-114.322 -13.883)" fill="#001a12"/>
    <path id="패스_6663" data-name="패스 6663" d="M319.084,25.832v-2.18H317.8v9.109h1.284v-5.97h1.391v-.959Z" transform="translate(-181.581 -14.105)" fill="#001a12"/>
    <path id="패스_6664" data-name="패스 6664" d="M305.974,25.2V24.1h-1.284v1.1c0,2.457-1.093,3.188-2.229,3.705v.865a4.6,4.6,0,0,0,2.871-1.739,4.584,4.584,0,0,0,2.871,1.739V28.9c-1.137-.517-2.229-1.248-2.229-3.705" transform="translate(-173.082 -14.354)" fill="#001a12"/>
    <path id="패스_6665" data-name="패스 6665" d="M224.959,26.129V23.922h-6.8v.959h5.511v1.28c0,.254-.013.508-.036.758a2.21,2.21,0,0,1-.152.66H217.08v.959h3.812v.923h-2.765v.963h5.525v2.484h1.284V29.46h-2.76v-.923H226.1v-.959h-1.743a2.239,2.239,0,0,0,.6-1.449" transform="translate(-125.77 -14.255)" fill="#001a12"/>
    <path id="패스_6666" data-name="패스 6666" d="M285.343,29.272h-1.284v1.507h-3.3v.963h9.029v-.963h-4.445Z" transform="translate(-161.057 -17.22)" fill="#001a12"/>
    <path id="패스_6667" data-name="패스 6667" d="M242.14,36.347v.959h5.3v2.484h1.284V36.342H242.14Z" transform="translate(-139.657 -21.137)" fill="#001a12"/>
    <path id="패스_6668" data-name="패스 6668" d="M252.3,25.28H250.91v.959H252.3v2.55h1.284V23.652H252.3Z" transform="translate(-144.516 -14.105)" fill="#001a12"/>
    <path id="패스_6669" data-name="패스 6669" d="M258.81,36.041H261.2a4.888,4.888,0,0,1-.734,3.036h1.03c.451-.534.948-.751.987-3.036h2.054v3.036h1.284V36.041h2.122v-.959H258.81Z" transform="translate(-148.894 -20.439)" fill="#001a12"/>
    <path id="패스_6670" data-name="패스 6670" d="M57.588,15.707H55.033a9.2,9.2,0,0,0-8.313,6.562c-.967,3.614,1.184,6.558,4.8,6.562h2.56a8.44,8.44,0,0,0,8.313-6.562c.967-3.614-1.184-6.558-4.794-6.562m1.13,6.566a5.212,5.212,0,0,1-4.632,3.814H52.907c-1.955-.029-3.093-1.726-2.535-3.814A5.213,5.213,0,0,1,55,18.459h1.188c1.955.029,3.093,1.73,2.535,3.814M42.405,28.831a1.637,1.637,0,0,0,1.48-1.167l3.222-11.956H44.49a1.633,1.633,0,0,0-1.48,1.167L41,24.379,36.456,15.7H33.834a1.633,1.633,0,0,0-1.48,1.167l-3.2,11.956h2.6a1.633,1.633,0,0,0,1.48-1.167L35.268,20.1l4.54,8.73h2.6ZM71.962,15.707a9.2,9.2,0,0,0-8.313,6.562c-.967,3.614,1.184,6.549,4.8,6.553h5.924a1.647,1.647,0,0,0,1.447-1.151l.425-1.584h-6.4c-1.964,0-3.093-1.726-2.535-3.814a5.213,5.213,0,0,1,4.632-3.814H76.9a1.627,1.627,0,0,0,1.48-1.167l.425-1.584H71.962ZM19.86,26.021c-.367-2.768-2.468-4.223-4.873-4.957-.454-.129-.921-.238-1.392-.346l-1.772,6.658c-.213.525-.621,1.455-2.618,1.455H7.137l2.468-9.276c-2.839-1.23-4.661-4.035-2.289-8.817.179-.363.067-.617-.229-.354A20.834,20.834,0,0,0,.963,19.018C-1,24.237.088,29.681,3.731,32.454a11.392,11.392,0,0,0,10.651,1.609c3.7-1.338,5.74-4.148,5.482-8.042Z" transform="translate(0 -5.993)" fill="#001a12"/>
    <path id="패스_6671" data-name="패스 6671" d="M20.35,12.235h0L21.5,7.925c.213-.525.621-1.455,2.618-1.455h2.064l-1.834,6.9,6.8-6.216A3.721,3.721,0,0,1,33.5,6.474h-.017l3.489,0-8,7.262c3.706.755,6.783,3.814,5.007,9.438-.1.25-.163.684.421.029,2.189-2.368,6.441-7.983,6.1-13.882C40.014.8,32.335-.467,27.912.125c-4.782.638-7.466,2.956-8.825,5.024C17.74,7.2,17.11,10.926,20.35,12.235Z" transform="translate(-10.491 0)" fill="#fc0019"/>
    <path id="패스_6672" data-name="패스 6672" d="M198.2,48.449h-.455s-.874,1.1-.932,1.173V48.449h-.4v2.787h.4V49.845c.063.089.932,1.391.932,1.391h.5s-1.043-1.5-1.066-1.525c.018-.027,1.012-1.262,1.012-1.262Z" transform="translate(-114.322 -27.846)" fill="#001a12"/>
    <path id="패스_6673" data-name="패스 6673" d="M201.963,48.329a.82.82,0,0,0-.883.919v.9c0,.745.272,1.083.883,1.083s.883-.334.883-1.083v-.9a.82.82,0,0,0-.883-.919m.477,1.828c0,.6-.183.727-.482.727s-.482-.12-.482-.727v-.923c0-.49.3-.566.482-.566s.482.076.482.566Z" transform="translate(-116.904 -27.779)" fill="#001a12"/>
    <path id="패스_6674" data-name="패스 6674" d="M207.929,51.236l-.009-.031a4.03,4.03,0,0,1-.094-.709c-.018-.513-.125-.651-.4-.713a.612.612,0,0,0,.45-.624.65.65,0,0,0-.682-.709h-.968v2.787h.4V49.978h.383a.343.343,0,0,1,.392.326l.018.308a1.607,1.607,0,0,0,.089.611v.013Zm-.8-1.61h-.5V48.8h.5a.347.347,0,0,1,.343.392c0,.2-.089.433-.348.433" transform="translate(-119.758 -27.846)" fill="#001a12"/>
    <path id="패스_6675" data-name="패스 6675" d="M211.327,49.982h.99V49.63h-.99V48.8h1.061v-.352H210.93v2.787h1.48v-.352h-1.083Z" transform="translate(-122.362 -27.846)" fill="#001a12"/>
    <path id="패스_6676" data-name="패스 6676" d="M215.92,48.449h-.473l-.887,2.787h.4s.2-.624.205-.651h1.025l.2.651h.441Zm-.651,1.784c.018-.058.366-1.248.4-1.364.036.116.4,1.311.41,1.364Z" transform="translate(-124.374 -27.846)" fill="#001a12"/>
    <path id="패스_6677" data-name="패스 6677" d="M223.745,48.449v2.274q-.522-1.137-1.034-2.274h-.531v2.787h.357v-2.3c.076.156,1.048,2.3,1.048,2.3h.517V48.449Z" transform="translate(-128.597 -27.846)" fill="#001a12"/>
    <path id="패스_6678" data-name="패스 6678" d="M228.536,48.449h-.473l-.883,2.787h.4s.2-.624.205-.651h1.021c.009.031.2.651.2.651h.437Zm-.642,1.784c.018-.058.366-1.248.4-1.364.036.116.392,1.311.41,1.364Z" transform="translate(-131.367 -27.846)" fill="#001a12"/>
    <path id="패스_6679" data-name="패스 6679" d="M231.72,48.449V48.8h.722v2.435h.4V48.8h.722v-.352H231.72Z" transform="translate(-133.883 -27.846)" fill="#001a12"/>
    <rect id="사각형_2775" data-name="사각형 2775" width="0.397" height="2.787" transform="translate(100.013 20.603)" fill="#001a12"/>
    <path id="패스_6680" data-name="패스 6680" d="M239.677,48.329a.823.823,0,0,0-.887.919v.9c0,.745.272,1.083.887,1.083s.883-.334.883-1.083v-.9a.822.822,0,0,0-.883-.919m.482,1.828c0,.6-.183.727-.477.727s-.481-.12-.481-.727v-.923c0-.49.3-.566.481-.566s.477.076.477.566Z" transform="translate(-137.8 -27.779)" fill="#001a12"/>
    <path id="패스_6681" data-name="패스 6681" d="M245.585,48.449v2.274c-.076-.156-1.034-2.274-1.034-2.274h-.531v2.787h.357v-2.3l1.048,2.3h.517V48.449Z" transform="translate(-140.699 -27.846)" fill="#001a12"/>
    <path id="패스_6682" data-name="패스 6682" d="M250.384,48.449H249.9l-.883,2.787h.4s.2-.624.205-.651h1.021c.013.031.2.651.2.651h.441Zm-.656,1.784c.018-.058.37-1.248.4-1.364.036.116.4,1.311.41,1.364Z" transform="translate(-143.469 -27.846)" fill="#001a12"/>
    <path id="패스_6683" data-name="패스 6683" d="M255.147,48.449h-.4v2.787h1.4v-.352h-1V48.449Z" transform="translate(-146.644 -27.846)" fill="#001a12"/>
    <path id="패스_6684" data-name="패스 6684" d="M261.453,48.329a.82.82,0,0,0-.883.919v.9c0,.745.272,1.083.883,1.083s.887-.334.887-1.083v-.9a.821.821,0,0,0-.887-.919m.482,1.828c0,.6-.183.727-.482.727s-.477-.12-.477-.727v-.923c0-.49.3-.566.477-.566s.482.076.482.566Z" transform="translate(-149.868 -27.779)" fill="#001a12"/>
    <rect id="사각형_2776" data-name="사각형 2776" width="0.401" height="2.787" transform="translate(113.055 20.603)" fill="#001a12"/>
    <path id="패스_6685" data-name="패스 6685" d="M268.467,48.449h-.4v2.787h1.4v-.352h-1Z" transform="translate(-154.025 -27.846)" fill="#001a12"/>
    <path id="패스_6686" data-name="패스 6686" d="M275.4,50.34c0,.49-.285.544-.406.544-.245,0-.464-.053-.464-.727v-.731a1.148,1.148,0,0,1,.071-.544.4.4,0,0,1,.4-.21.427.427,0,0,1,.29.111.639.639,0,0,1,.071.383v.022h.406v-.022a.812.812,0,0,0-.165-.642.737.737,0,0,0-.575-.2c-.624,0-.905.317-.905,1.017v.776c0,1.106.58,1.106.887,1.106a.8.8,0,0,0,.584-.2.941.941,0,0,0,.214-.691v-.022h-.41v.027Z" transform="translate(-157.377 -27.779)" fill="#001a12"/>
    <path id="패스_6687" data-name="패스 6687" d="M279.733,48.329a.82.82,0,0,0-.883.919v.9c0,.749.272,1.083.883,1.083s.883-.334.883-1.083v-.9a.82.82,0,0,0-.883-.919m.482,1.833c0,.6-.183.727-.482.727s-.482-.12-.482-.727v-.927c0-.49.3-.566.482-.566s.482.076.482.566Z" transform="translate(-159.999 -27.779)" fill="#001a12"/>
    <path id="패스_6688" data-name="패스 6688" d="M285.709,51.24l-.009-.031a4.04,4.04,0,0,1-.094-.709l0,0c-.018-.513-.12-.651-.4-.713a.612.612,0,0,0,.45-.624.649.649,0,0,0-.678-.709h-.967v2.787h.4V49.978h.383a.34.34,0,0,1,.392.326l.018.312a1.593,1.593,0,0,0,.094.611v.013Zm-.8-1.614h-.5V48.8h.5a.347.347,0,0,1,.343.392c0,.2-.089.433-.348.433" transform="translate(-162.858 -27.846)" fill="#001a12"/>
    <path id="패스_6689" data-name="패스 6689" d="M289.645,48.453l0,0h-.829v2.787h.392v-1.2h.433a.736.736,0,0,0,.789-.776.705.705,0,0,0-.789-.8m-.076,1.226h-.357V48.8h.459c.036,0,.361.013.361.437a.412.412,0,0,1-.464.441" transform="translate(-165.523 -27.846)" fill="#001a12"/>
    <path id="패스_6690" data-name="패스 6690" d="M294.253,48.329a.82.82,0,0,0-.883.919v.9c0,.749.272,1.083.883,1.083s.883-.334.883-1.083v-.9a.814.814,0,0,0-.883-.919m.482,1.833c0,.6-.183.727-.482.727s-.477-.12-.477-.727v-.927c0-.49.3-.566.477-.566s.482.076.482.566Z" transform="translate(-168.044 -27.779)" fill="#001a12"/>
    <path id="패스_6691" data-name="패스 6691" d="M300.225,51.209a4.043,4.043,0,0,1-.094-.709v0c-.018-.513-.125-.651-.4-.713a.613.613,0,0,0,.45-.624.649.649,0,0,0-.678-.709h-.968v2.787h.392V49.978h.388a.338.338,0,0,1,.388.326l.018.312a1.6,1.6,0,0,0,.089.611l.009.013h.41Zm-.789-1.583h-.5V48.8h.5a.35.35,0,0,1,.348.392c0,.2-.094.433-.348.433" transform="translate(-170.91 -27.846)" fill="#001a12"/>
    <path id="패스_6692" data-name="패스 6692" d="M304,48.449h-.477l-.888,2.787h.406s.2-.624.205-.651h1.021c.009.031.2.651.2.651h.442Zm-.651,1.784c.018-.058.366-1.248.4-1.364.031.116.392,1.311.41,1.364Z" transform="translate(-173.181 -27.846)" fill="#001a12"/>
    <path id="패스_6693" data-name="패스 6693" d="M307.18,48.449V48.8h.722v2.435h.4V48.8h.722v-.352H307.18Z" transform="translate(-175.696 -27.846)" fill="#001a12"/>
    <rect id="사각형_2777" data-name="사각형 2777" width="0.397" height="2.787" transform="translate(133.659 20.603)" fill="#001a12"/>
    <path id="패스_6694" data-name="패스 6694" d="M315.143,48.329a.82.82,0,0,0-.883.919v.9c0,.749.276,1.083.883,1.083s.883-.334.883-1.083v-.9a.822.822,0,0,0-.883-.919m.481,1.833c0,.606-.174.727-.481.727s-.482-.116-.482-.727v-.927c0-.49.3-.566.482-.566s.481.076.481.566Z" transform="translate(-179.619 -27.779)" fill="#001a12"/>
    <path id="패스_6695" data-name="패스 6695" d="M321.379,48.449h-.334v2.274l-1.034-2.274h-.531v2.787h.357v-2.3l1.052,2.3h.517V48.449h-.027Z" transform="translate(-182.512 -27.846)" fill="#001a12"/>
  </g>
</svg>
