<svg id="public_한국보건의료인국가시험원" xmlns="http://www.w3.org/2000/svg" width="202.001" height="54" viewBox="0 0 202.001 54">
  <rect id="투명배경" width="202.001" height="54" fill="none"/>
  <g id="한국보건ᄋ_료인국가시험ᄋ_ᆫ" data-name="한국보건의료인국가시험원" transform="translate(0.001 12.242)">
    <path id="패스_15705" data-name="패스 15705" d="M-195.777,33.821c.169-.433.314-.7.519-1.213l.562-1.259h.533l-.976,2.009,1.165,2.719h-.556l-.9-2.268-.354.693v1.576h-.5V31.349h.5v1.26c0,.508,0,.787-.014,1.212Zm2.665-.107c0,1.8.448,2.459,1.156,2.459s1.158-.655,1.158-2.459-.45-2.459-1.158-2.459-1.156.652-1.156,2.454Zm1.156-2.1c.356,0,.656.488.656,2.1s-.3,2.1-.656,2.1-.652-.49-.652-2.1.3-2.1.647-2.1Zm3.534,2.32c.4-.085.8-.372.8-1.247,0-1.042-.553-1.337-1.264-1.337h-.785v4.728h.5V34.012h.317l.9,2.065h.566Zm-.755-.277V31.711h.307c.527,0,.736.3.736.979s-.263.965-.689.965Zm4.05-.233v.362h-.868v1.93h1.118v.362h-1.615V31.349h1.58v.362h-1.084v1.711Zm2.787-.441c-.081-.413-.162-.806-.236-1.273h-.031c-.072.464-.152.875-.229,1.28l-.251,1.256h.991Zm-.823,1.634-.293,1.462h-.534l1.06-4.728h.679l1.065,4.728h-.544l-.293-1.462Zm7.791,1.461h-.5V33.794h-1.118v2.284h-.5V31.349h.5V33.43h1.118V31.349h.5Zm2.567-2.654v.362h-.868v1.93h1.123v.362h-1.62V31.349h1.58v.362h-1.084v1.711Zm3.11,1.193.29,1.462h.539l-1.061-4.728h-.68l-1.062,4.728h.54l.293-1.462Zm-.074-.371h-.993l.246-1.255c.08-.407.157-.817.23-1.282h.032c.076.467.152.86.234,1.273Zm3.576,1.832h-1.66V31.349h.5v4.364h1.158Zm2.967-4.365h-.809v4.364h-.5V31.712h-.811v-.364h2.122Zm3.138,4.365h-.5V33.794H-161.7v2.284h-.495V31.349h.495V33.43h1.118V31.349h.5Zm4.451,0V34.085h.29c.834,0,1.313-.355,1.313-1.383,0-.9-.376-1.353-1.264-1.353h-.841v4.728Zm0-2.356V31.713h.352c.5,0,.738.289.738.989,0,.78-.274,1.02-.792,1.02Zm4.038-.3v.362h-.868v1.93h1.121v.362h-1.617V31.349h1.58v.362h-1.084v1.711Zm2.627.51c.4-.085.8-.372.8-1.247,0-1.042-.556-1.337-1.259-1.337h-.792v4.728h.5V34.012h.314l.9,2.065h.564Zm-.752-.277V31.711h.31c.524,0,.733.3.733.979s-.263.965-.691.965Zm4.125-1.488c-.037-.2-.138-.553-.475-.553a.486.486,0,0,0-.4.253.828.828,0,0,0-.11.457.977.977,0,0,0,.194.616,3.917,3.917,0,0,0,.553.56,6.414,6.414,0,0,1,.566.584,1.461,1.461,0,0,1,.24.812,1.3,1.3,0,0,1-.238.788,1.011,1.011,0,0,1-.851.487.948.948,0,0,1-1.031-.941l.479-.022c.053.256.18.6.546.6a.554.554,0,0,0,.463-.324,1.13,1.13,0,0,0,.12-.537,1.066,1.066,0,0,0-.176-.6,4.132,4.132,0,0,0-.529-.539,3.269,3.269,0,0,1-.6-.642,1.445,1.445,0,0,1-.236-.814,1.062,1.062,0,0,1,.229-.716.922.922,0,0,1,.787-.385.9.9,0,0,1,.936.9Zm1.542,1.547c0,1.8.45,2.459,1.158,2.459s1.158-.655,1.158-2.459-.45-2.459-1.158-2.459-1.158.652-1.158,2.454Zm1.158-2.1c.356,0,.651.488.651,2.1s-.3,2.1-.652,2.1-.654-.49-.654-2.1.3-2.1.647-2.1Zm4.082,3.823c-.035-.708-.047-2.118-.047-4.086h.45v4.728h-.632c-.589-2.014-.983-3.4-1.135-4.086h-.02c.025.7.035,2.094.035,4.086h-.455V31.349h.644c.58,1.968.976,3.382,1.139,4.086Zm3.448,0c-.04-.708-.052-2.118-.052-4.086h.455v4.728h-.632c-.589-2.014-.983-3.4-1.135-4.086h-.023c.025.7.037,2.094.037,4.086h-.455V31.349h.642c.582,1.968.976,3.382,1.141,4.086Zm2.986-2.012v.362h-.87v1.93h1.121v.362h-1.615V31.349h1.58v.362h-1.086v1.711Zm3.045,2.291H-130.5V31.35h-.5v4.728h1.66Zm5.44.363h-1.664V31.349h.5v4.364h1.16Zm1.058-4.728h.5v4.728h-.5Zm3.618,3.477c-.056.778-.428,1.348-.925,1.348a.821.821,0,0,1-.774-.551,4.489,4.489,0,0,1-.3-1.93,4.37,4.37,0,0,1,.3-1.865.849.849,0,0,1,.778-.572c.45,0,.823.354.872,1.256l-.467.017c-.042-.613-.158-.919-.411-.919-.287,0-.572.409-.572,2.108,0,1.75.278,2.1.567,2.1s.429-.5.457-1.01Zm2.433-1.4v.362h-.865v1.93h1.118v.362h-1.618V31.349h1.578v.362h-1.079v1.711Zm3.176,2.012c-.039-.708-.047-2.118-.047-4.086h.45v4.728h-.632c-.589-2.014-.98-3.4-1.135-4.086H-115c.025.7.037,2.094.037,4.086h-.457V31.349h.644c.58,1.968.976,3.382,1.139,4.086Zm3.066-3.268c-.04-.2-.138-.553-.48-.553a.492.492,0,0,0-.4.253.829.829,0,0,0-.108.457.964.964,0,0,0,.194.616,3.746,3.746,0,0,0,.551.56,6.181,6.181,0,0,1,.565.584,1.432,1.432,0,0,1,.244.812,1.317,1.317,0,0,1-.238.788,1.016,1.016,0,0,1-.854.487.948.948,0,0,1-1.03-.941l.481-.022c.049.256.178.6.541.6a.554.554,0,0,0,.466-.324,1.127,1.127,0,0,0,.118-.537,1.084,1.084,0,0,0-.172-.6,4.39,4.39,0,0,0-.532-.539,3.316,3.316,0,0,1-.6-.642,1.445,1.445,0,0,1-.234-.814,1.074,1.074,0,0,1,.227-.716.925.925,0,0,1,.787-.385.907.907,0,0,1,.939.9Zm1.666-.818h.5v4.728h-.5Zm3.549,4.085c-.037-.708-.047-2.118-.047-4.086h.45v4.728h-.632c-.587-2.014-.983-3.4-1.135-4.086h-.023c.025.7.037,2.094.037,4.086h-.453V31.349h.64c.584,1.968.978,3.382,1.141,4.086Zm3.79.258a1.328,1.328,0,0,1-1,.48c-.86,0-1.244-.781-1.244-2.477,0-1.87.522-2.44,1.235-2.44.563,0,.873.428,1,1.17l-.492.041c-.1-.616-.227-.853-.509-.853-.367,0-.726.593-.726,2.1,0,1.454.278,2.1.75,2.1a.779.779,0,0,0,.51-.2V34.237h-.494v-.364h.968Zm5.238-2.27v.362h-.865v1.93h1.118v.362h-1.615V31.349h1.578v.362H-97.17v1.711Zm3.19-2.074h.546l-.966,2.3,1.013,2.428h-.553l-.731-2.017h-.017l-.728,2.017h-.556l1.015-2.428-.968-2.3h.546l.693,1.962h.014Zm3.363,3.266.29,1.462h.541l-1.058-4.728h-.685l-1.062,4.728h.543l.29-1.462Zm-.073-.371h-.991l.248-1.255c.078-.407.155-.817.23-1.282h.03c.076.467.155.86.234,1.273Zm3.5,1.269c.128-.786.406-2.107.851-4.165h.733v4.728h-.452c0-2.1,0-3.535.027-4.288h-.014c-.138.746-.431,2.143-.9,4.288h-.509c-.445-2.108-.75-3.535-.893-4.288H-87.5c.03.754.032,2.18.032,4.288h-.45V31.349h.733c.438,2.078.72,3.384.846,4.165Zm2.829-4.165h.5v4.728h-.5Zm3.546,4.085c-.033-.708-.044-2.118-.044-4.086h.455v4.728h-.635c-.589-2.014-.985-3.4-1.14-4.086h-.018c.025.7.032,2.094.032,4.086h-.453V31.349h.645c.58,1.968.976,3.382,1.139,4.086Zm3.377-.819.29,1.462h.539L-76.8,31.35h-.68l-1.06,4.728H-78l.291-1.462Zm-.074-.371h-.99l.246-1.255c.08-.407.155-.817.23-1.282h.033c.076.467.155.86.234,1.273Zm3.827-2.533h-.806v4.364h-.5V31.712h-.811v-.364h2.119Zm1.05-.363h.5v4.728h-.5Zm1.631,2.365c0,1.8.45,2.459,1.158,2.459s1.156-.655,1.156-2.459-.448-2.459-1.156-2.459-1.158.652-1.158,2.454Zm1.158-2.1c.354,0,.652.488.652,2.1s-.3,2.1-.652,2.1-.654-.49-.654-2.1.3-2.1.647-2.1Zm4.08,3.823c-.037-.708-.047-2.118-.047-4.086h.455v4.728h-.635c-.587-2.014-.985-3.4-1.135-4.086h-.023c.025.7.035,2.094.035,4.086H-66.7V31.349h.644c.58,1.968.973,3.382,1.136,4.086Zm4.371-4.085h.5v4.728h-.5Zm3.549,4.085c-.035-.708-.047-2.118-.047-4.086h.455v4.728H-57.2c-.587-2.014-.983-3.4-1.138-4.086h-.02c.025.7.037,2.094.037,4.086h-.455V31.349h.644c.582,1.968.976,3.382,1.139,4.086Zm3.066-3.268c-.04-.2-.138-.553-.48-.553a.5.5,0,0,0-.4.253.83.83,0,0,0-.113.457.927.927,0,0,0,.2.616,3.738,3.738,0,0,0,.551.56,5.939,5.939,0,0,1,.564.584,1.46,1.46,0,0,1,.24.812,1.327,1.327,0,0,1-.231.788,1.039,1.039,0,0,1-.858.487.952.952,0,0,1-1.033-.941l.482-.022c.054.256.174.6.545.6a.54.54,0,0,0,.461-.324,1.132,1.132,0,0,0,.125-.537,1.106,1.106,0,0,0-.176-.6,5.053,5.053,0,0,0-.532-.539,3.279,3.279,0,0,1-.6-.642,1.464,1.464,0,0,1-.236-.814,1.073,1.073,0,0,1,.227-.716.933.933,0,0,1,.79-.385.9.9,0,0,1,.936.9Zm3.584-.455h-.811v4.364h-.5V31.712h-.812v-.364h2.125Zm1.047-.363h.5v4.728h-.5Zm3.669,0h-2.124v.364h.811v4.364h.5V31.713h.811Zm3.143,3.422c0,.9-.224,1.4-1.072,1.4-.817,0-1.053-.486-1.053-1.408V31.349h.5v3.408c0,.614.086,1.057.559,1.057s.572-.43.572-1.057V31.349h.5Zm3.138-3.422h-2.122v.364h.809v4.364h.5V31.713h.811Zm2.384,2.074v.362h-.868v1.93h1.121v.362h-1.617V31.349h1.58v.362h-1.084v1.711ZM-187.1,20.37v1.49a22.323,22.323,0,0,1-.227,2.826l-1.039.167c-.059-.484-.119-1.79-.119-2.5V15.818c0-.6-.528-.948-1.8-1.266l.227-.54c.973.119,2.39.392,3.127.527a10.084,10.084,0,0,0-.165,1.309v3.712c.827-.059,2.014-.192,2.872-.344l-.137,1.156c-.691-.014-1.908,0-2.735,0m-8.061.318a1.651,1.651,0,0,0,1.608,1.7,1.651,1.651,0,0,0,1.61-1.7,1.654,1.654,0,0,0-1.61-1.672,1.6,1.6,0,0,0-1.608,1.672m9.172,5.817-.192,1.143c-2.422-.06-5.07.016-6.816.12-.676.048-.961-.33-.961-.766V25.484c0-.858-.091-.978-1.279-1.278l.258-.54c.553.074,1.894.239,2.5.33a10.407,10.407,0,0,0-.091,1.144v1.4c0,.359.074.4.508.419a45.768,45.768,0,0,0,6.078-.453m-5.4-11.455-.243.931c-.647-.013-1.639.03-2.166.03a15.564,15.564,0,0,0-1.608.136l-.6-1.111a12.718,12.718,0,0,0,2.016.239c.48,0,1.714-.1,2.6-.225m.9,5.7c0,1.306-1.339,2.39-3.083,2.39-1.715,0-3.07-1.114-3.07-2.39,0-1.4,1.37-2.391,3.07-2.391,1.822,0,3.083,1.126,3.083,2.391m1.218-4.181-.182,1.084c-1.322-.016-4.781.076-6.012.136-.485.029-1.626.133-2.1.209l-.558-1.2a15.457,15.457,0,0,0,2.195.226,50.772,50.772,0,0,0,6.662-.451m15.155,3.1a20.056,20.056,0,0,0,.572-3.893c-1.46,0-3.341.029-4.543.119a23.2,23.2,0,0,0-2.554.288l-.65-1.2c.767.088,1.868.18,2.48.18a48.09,48.09,0,0,0,6.619-.391l.389.377a25.787,25.787,0,0,1-1.158,4.48c1.219-.076,2.511-.2,3.487-.33l-.178,1.2c-.784-.046-2.152-.074-3.443-.088-.542,0-1.43.013-2.436.042v.965a14.155,14.155,0,0,1-.1,1.624c1.337-.076,2.628-.151,3.4-.24a8.387,8.387,0,0,0-.094,1.05v2.107a8.544,8.544,0,0,1-.239,2.076l-1.022.179c-.058-.467-.133-1.414-.133-1.925V23.695c-1.5-.06-3.642.1-5.156.21-.618.046-1.188.136-1.835.227l-.558-1.158a18.3,18.3,0,0,0,2.028.148c.662,0,1.476-.009,2.334-.042-.019-.466-.047-1.084-.047-1.461v-1.14c-1.549.043-3.052.086-3.652.134-.722.044-1.657.136-2.349.226l-.5-1.279c.874.1,1.96.181,2.831.211,1.234.044,4.69-.046,6.511-.107m13.163,1.729V18.867c-1.522-.043-3.429-.013-5.023.076v1.836a6.013,6.013,0,0,1-.044.8c1.519-.031,3.488-.09,5.068-.181m.059.857c-.536-.014-1.143-.029-1.788-.014v2.916c.873-.03,1.626-.058,2.09-.076,1.31-.058,2.754-.21,3.82-.346l-.183,1.2c-.78-.043-2.149-.06-3.443-.073-1.622-.016-5.833.149-7.006.225-.75.046-1.655.121-2.376.209L-170.244,25c.871.106,1.924.181,2.828.21.708.03,2.028.014,3.354-.014V22.267c-.706.012-1.414.03-2.061.06-.03.2-.074.36-.107.511l-.947.15a11.192,11.192,0,0,1-.134-1.565v-4.2c0-.613-.229-.857-1.235-1.081l.213-.5c.658.059,1.757.2,2.521.346a9.889,9.889,0,0,0-.164,1.217v.962c1.5-.029,3.4-.09,5.023-.209V16.657c0-.614-.268-.81-1.385-1.08l.227-.543c.814.089,1.94.24,2.68.391a11.394,11.394,0,0,0-.134,1.218v3.907a9.046,9.046,0,0,1-.263,2.122l-.991.151c-.025-.151-.042-.361-.074-.574m14-2.06a20.614,20.614,0,0,0-3.3.317l-.523-1.112a15.648,15.648,0,0,0,1.952.105c.544-.017,1.325-.031,1.866-.06V15.818c0-.6-.558-.949-1.835-1.266l.256-.54c.947.119,2.357.392,3.128.527a10.816,10.816,0,0,0-.164,1.309v6.013a17.07,17.07,0,0,1-.26,2.826l-1,.167c-.061-.484-.12-1.79-.12-2.5Zm2.135,6.332-.2,1.157c-2.393-.091-5.051-.016-6.8.088-.672.048-.959-.329-.959-.764V25.185c0-.857-.091-.979-1.279-1.28l.224-.539c.587.073,1.927.241,2.527.329-.03.241-.089.8-.089,1.142v1.7c0,.359.072.4.485.419a46.252,46.252,0,0,0,6.087-.434m-4.978-10.645.514.313c-.952,2.932-3.985,5.986-7.2,7.475l-.361-.45a13.486,13.486,0,0,0,5.714-6.3c-.858,0-1.9.061-2.288.09a15.521,15.521,0,0,0-2.1.258l-.768-1.206c.44.061,1.7.18,2.348.18a23.366,23.366,0,0,0,4.148-.359m13.38,2.917a2.017,2.017,0,0,0-2-2.03,2,2,0,0,0-2,2.03,1.957,1.957,0,0,0,2,1.985,1.949,1.949,0,0,0,2-1.985m-1.34-2.676a2.959,2.959,0,0,1,2.8,2.736c0,1.563-1.488,2.765-3.49,2.765-1.967,0-3.427-1.2-3.427-2.765a2.988,2.988,0,0,1,3.007-2.767c-.03-.253-.167-.391-.614-.54l.238-.437c.421.088,1.218.24,1.7.344-.059.179-.15.408-.211.664m4.619,7.23a60.367,60.367,0,0,1-7.216,1.128c-.41.03-1.627.15-2.287.254l-.739-1.247a16.4,16.4,0,0,0,2.38.167,47.814,47.814,0,0,0,7.863-.948V15.818c0-.6-.559-.949-1.837-1.266l.258-.54c.947.119,2.361.392,3.126.527a10.815,10.815,0,0,0-.165,1.308V23.98a34.948,34.948,0,0,1-.268,4.226l-.979.134c-.073-.647-.134-2.18-.134-3.306Zm8.689,1.909c.947-.014,1.91-.046,2.688-.073V22.732c-.9,0-1.832,0-2.688.017Zm-1.369.031V22.794c-.3,0-.588.013-.827.03a.769.769,0,0,1-.921-.828V20.3c0-.72-.133-.841-1.05-1.141l.242-.451a57.068,57.068,0,0,0,7.354.047l.1-2.347c-.947-.044-3.726.029-4.717.107-.425.029-1.463.106-2.2.239l-.647-1.2a15.2,15.2,0,0,0,2.2.253c1.49.017,5.2-.03,7.068-.2a7.187,7.187,0,0,0-.241,1.084l-.3,1.968q.278-.016.556-.043l-.1.931c-2.2-.1-5.864,0-6.839.046a4.786,4.786,0,0,0-.017.481V21.68c0,.3.026.316.4.329a54.063,54.063,0,0,0,6.994-.42l-.256,1.173c-.4-.014-.852-.031-1.368-.031v2.407c1.264-.076,2.632-.211,3.659-.348l-.186,1.2c-.78-.046-2.147-.062-3.438-.077-1.628-.014-5.841.152-7.011.228-.755.043-1.655.119-2.374.194l-.469-1.278c.87.1,1.927.18,2.827.211.379.014.935.014,1.565.014m17.6-10.737.256-.54c.949.119,2.363.392,3.126.527a11.344,11.344,0,0,0-.165,1.309V21.86a17.258,17.258,0,0,1-.253,2.827l-1.008.166c-.059-.482-.12-1.789-.12-2.5V15.818c0-.6-.556-.949-1.835-1.266m4.2,11.953-.2,1.144c-2.388-.06-5.021.016-6.764.119-.709.048-.96-.329-.96-.765V25.184c0-.857-.09-.978-1.31-1.279l.253-.54c.588.075,1.926.241,2.528.33-.03.241-.091.8-.091,1.142v1.7c0,.359.074.4.482.419a45.862,45.862,0,0,0,6.059-.452m-6.209-7.47a1.97,1.97,0,0,0-1.938-2.017,1.98,1.98,0,0,0-1.975,2.017,1.93,1.93,0,0,0,1.975,2,1.91,1.91,0,0,0,1.938-2m-1.31-2.648a2.906,2.906,0,0,1,2.752,2.722c0,1.565-1.457,2.751-3.4,2.751-1.963,0-3.391-1.187-3.391-2.752a2.95,2.95,0,0,1,2.958-2.75c-.025-.24-.178-.377-.63-.51l.244-.422c.445.089,1.2.241,1.68.345a4.124,4.124,0,0,0-.211.616m17.429,3.277a20.423,20.423,0,0,0,.57-3.893c-1.458,0-3.339.029-4.543.119a23.237,23.237,0,0,0-2.556.288l-.646-1.2c.767.088,1.864.18,2.483.18a48.122,48.122,0,0,0,6.617-.391l.387.377a25.8,25.8,0,0,1-1.156,4.48c1.219-.076,2.51-.2,3.49-.33l-.18,1.2c-.784-.046-2.154-.074-3.443-.088-.545,0-1.43.013-2.439.042v.965a14.13,14.13,0,0,1-.105,1.624c1.337-.076,2.63-.151,3.4-.24a8.2,8.2,0,0,0-.089,1.05v2.107a8.561,8.561,0,0,1-.244,2.076l-1.02.179a19.024,19.024,0,0,1-.138-1.925V23.694c-1.5-.06-3.637.1-5.154.21-.618.046-1.19.136-1.837.227l-.556-1.158a18.385,18.385,0,0,0,2.033.148c.657,0,1.471-.01,2.332-.042-.019-.466-.047-1.084-.047-1.461v-1.14c-1.552.043-3.057.086-3.654.134-.722.044-1.655.136-2.346.226l-.5-1.279c.871.1,1.953.181,2.826.211,1.236.044,4.692-.046,6.514-.107m15.394,1.6V23.98c0,1.2-.12,3.354-.239,4.226l-1.01.133c-.071-.647-.136-2.179-.136-3.3V15.817c0-.6-.523-.948-1.8-1.265l.224-.541c.978.12,2.388.394,3.127.527a11.047,11.047,0,0,0-.165,1.309v4.568c.844-.06,2.029-.18,2.887-.33l-.133,1.188c-.694-.031-1.911-.014-2.754-.014m-3.728-4.75.466.433a14.957,14.957,0,0,1-7.1,8.1l-.408-.45a13.346,13.346,0,0,0,5.642-7.052c-.575.014-1.9.061-2.438.074-.421.016-1.5.138-2.165.242l-.752-1.189a17.354,17.354,0,0,0,2.3.2,22.621,22.621,0,0,0,4.448-.359M-67.6,14.552l.258-.54c.945.119,2.361.392,3.126.527a10.848,10.848,0,0,0-.165,1.309v8.131a34.872,34.872,0,0,1-.27,4.227l-.977.134c-.076-.647-.137-2.18-.137-3.306V15.818c0-.6-.558-.949-1.835-1.266m-3.2,4.979a33.311,33.311,0,0,0,3.787,3.322L-68.085,23.9c-.978-1.141-2.061-2.466-3.144-3.7a15.715,15.715,0,0,1-4.12,4.031l-.418-.408a13.156,13.156,0,0,0,4.46-6.63c.094-.316.064-.36-.039-.5a2.8,2.8,0,0,0-.934-.554l.287-.451c.794.194,1.847.511,2.612.768a13.925,13.925,0,0,1-1.427,3.067m18.417,7.082.047-2.633c-1.219-.06-3.16,0-4.228.076l.058,2.347v.344c1.283-.014,2.844-.074,4.123-.134m1.219-.09q.269-.04.541-.06l-.256,1.066c-1.43-.09-3.971-.09-5.67-.029-.032.164-.062.361-.1.557l-.952.15a11.258,11.258,0,0,1-.177-1.519l-.18-2.042c-.061-.725-.137-.816-1.037-1.056l.253-.526a40.222,40.222,0,0,0,7.972-.029c-.15,1.007-.3,2.45-.391,3.488m-8.018-6.257a1.625,1.625,0,0,0,1.579,1.653A1.6,1.6,0,0,0-56,20.265a1.611,1.611,0,0,0-1.613-1.652,1.571,1.571,0,0,0-1.579,1.653m3.79-5.382-.239.95c-.644-.017-1.669.029-2.166.029a14.681,14.681,0,0,0-1.608.119l-.6-1.113A12.683,12.683,0,0,0-58,15.11c.45,0,1.714-.1,2.6-.227m.83,5.668c-.122,1.2-1.4,2.152-3.041,2.152-1.68,0-3.049-1.1-3.049-2.36,0-1.4,1.381-2.392,3.049-2.392a2.971,2.971,0,0,1,2.891,1.625,7.755,7.755,0,0,0,1.144.06c.372,0,.888-.014,1.338-.03V15.817c0-.6-.556-.948-1.835-1.265l.253-.54c.952.119,2.362.392,3.131.526a10.58,10.58,0,0,0-.165,1.309v4.312a16.564,16.564,0,0,1-.258,2.484l-1.007.151a16.65,16.65,0,0,1-.12-1.85v-.6a22.309,22.309,0,0,0-2.332.209m1.294-4.223-.184,1.081c-1.321-.014-4.781.076-6.013.136-.481.03-1.627.134-2.1.212l-.57-1.2a15.567,15.567,0,0,0,2.208.226,51.534,51.534,0,0,0,6.664-.45m14.99,6.783a21.644,21.644,0,0,0-3.3.328l-.528-1.1a19.056,19.056,0,0,0,1.955.121c.528-.017,1.264-.031,1.868-.076v-6.57c0-.6-.56-.948-1.837-1.265l.258-.541c.944.12,2.359.394,3.109.527-.057.361-.15,1.114-.15,1.309V22.07A24.41,24.41,0,0,1-37.16,25l-1.036.149c-.03-.39-.077-1.445-.089-2.041M-42,17.726a1.73,1.73,0,0,0-1.762-1.7,1.748,1.748,0,0,0-1.76,1.7,1.69,1.69,0,0,0,1.76,1.684A1.663,1.663,0,0,0-42,17.726m6,8.854-.2,1.159a71.326,71.326,0,0,0-7.2.029c-.706.048-.96-.33-.96-.766V25.95c0-.873-.09-.991-1.278-1.278l.226-.541c.588.076,1.924.24,2.526.331a10.386,10.386,0,0,0-.091,1.142v.934c0,.359.074.4.482.42A51.951,51.951,0,0,0-36,26.58m-7.143-11.154a2.606,2.606,0,0,1,2.51,2.342c0,1.386-1.355,2.437-3.187,2.437s-3.157-1.051-3.157-2.437c0-1.23,1.139-2.237,2.752-2.372-.031-.226-.167-.334-.528-.464l.181-.394c.421.076,1.171.226,1.608.3a2.458,2.458,0,0,0-.179.587m.15,6.136v.48a7.853,7.853,0,0,1-.227,1.878l-.989.152a14.471,14.471,0,0,1-.184-1.822v-.54c-.419.03-.827.057-1.247.089s-1.64.151-2.3.256l-.726-1.263a15.445,15.445,0,0,0,2.378.181,48.58,48.58,0,0,0,7.473-.722v.6q-2.074.442-4.18.71" transform="translate(237.999 -8.981)" fill="#0a2d66"/>
    <path id="패스_15706" data-name="패스 15706" d="M-448.176,99.87h-3.345v8.162h12.276v-3.348h-8.931Z" transform="translate(451.521 -75.81)" fill="#babfc3"/>
    <path id="패스_15707" data-name="패스 15707" d="M-436.968-25.454h4.26v5.547h3.354v-8.937h-7.614ZM-431.054-45l4.288,4.041,2.374-2.237-6.661-6.271v0l0,0-6.661,6.271,2.372,2.237Zm7.141,20.767h-3.365v6.989h7.98v-3.35h-4.615Zm1.284-4.614h-4.648v3.393h7.978V-38.735h-3.33Zm-.031-11.205h3.363v-9.415h-3.363Zm-28.84-9.415v3.379h8.906v6.041h3.354l.011-9.42Zm7.62,15.84-.025-1.764,4.676-.02v-3.356h-12.292v3.375h4.283v1.764h-4.283v3.365h8.929v4.813h3.357v-8.177ZM-427.089-36a2.89,2.89,0,0,0-1.9-.472,2.485,2.485,0,0,1,.357,1.276,2.471,2.471,0,0,1-2.47,2.472,2.466,2.466,0,0,1-2.115-1.2,2.886,2.886,0,0,1-1.9-.472,2.891,2.891,0,0,1-.806-4.014,5.758,5.758,0,0,0-.971,3.212A5.79,5.79,0,0,0-431.1-29.4a5.774,5.774,0,0,0,4.814-2.578,2.9,2.9,0,0,0-.8-4.017" transform="translate(451.521 49.464)" fill="#0a2d66"/>
    <path id="패스_15708" data-name="패스 15708" d="M-352.413,3.171a5.783,5.783,0,0,0-4.821,2.578,2.89,2.89,0,0,0,.808,4.014,2.879,2.879,0,0,0,1.9.472,2.478,2.478,0,0,1-.356-1.275,2.469,2.469,0,0,1,2.47-2.47,2.468,2.468,0,0,1,2.114,1.2,2.893,2.893,0,0,1,1.9.471,2.9,2.9,0,0,1,.8,4.018,5.76,5.76,0,0,0,.972-3.213,5.788,5.788,0,0,0-5.786-5.79" transform="translate(372.833 5.309)" fill="#dd1823"/>
  </g>
</svg>
