<svg id="research_한국산업기술기획평가원" xmlns="http://www.w3.org/2000/svg" width="160" height="54" viewBox="0 0 160 54">
  <rect id="투명배경" width="160" height="54" transform="translate(0)" fill="none"/>
  <g id="한국산업기술기ᄒ_ᆨ평가ᄋ_ᆫ" data-name="한국산업기술기획평가원" transform="translate(-9.278 12.446)">
    <g id="그룹_13895" data-name="그룹 13895" transform="translate(9.278 10.263)">
      <path id="패스_19517" data-name="패스 19517" d="M136.8-326.068l-7.719-7.938a1.7,1.7,0,0,1,0-2.373l6.469-6.615L138-340.6l-5.3,5.37,6.585,6.681Zm-12.379-1.843h3.6V-342.4h-3.6Zm22.224-15a7.4,7.4,0,0,0-7.588,7.491,7.583,7.583,0,0,0,7.623,7.5h5.343v-3.4h-5.212a4.192,4.192,0,0,1-4.1-4.107,3.921,3.921,0,0,1,3.986-4.038,3.273,3.273,0,0,1,3.464,2.373l-3.348-.014v3.4h4.874a1.925,1.925,0,0,0,2.075-1.892c.328-4.345-2.789-7.318-7.117-7.318m13.057,15h-3.6v-14.9h3.6ZM175.237-342.4H161.786v3.4h4.393v11.09h3.6V-339h5.46Z" transform="translate(-124.424 344.615)" fill="#1d398d"/>
      <path id="패스_19518" data-name="패스 19518" d="M442.13-357.269a1.8,1.8,0,0,1-1.8,1.8,1.8,1.8,0,0,1-1.8-1.8,1.8,1.8,0,0,1,1.8-1.8,1.8,1.8,0,0,1,1.8,1.8" transform="translate(-406.85 359.068)" fill="#28aae1"/>
      <path id="패스_19519" data-name="패스 19519" d="M332.986-282.807a1.7,1.7,0,0,1-1.7,1.7,1.7,1.7,0,0,1-1.7-1.7,1.7,1.7,0,0,1,1.7-1.7,1.7,1.7,0,0,1,1.7,1.7" transform="translate(-308.894 292.027)" fill="#70bf54"/>
      <path id="패스_19520" data-name="패스 19520" d="M245.054-204.375a1.755,1.755,0,0,1,0,2.482,1.755,1.755,0,0,1-2.482,0,1.755,1.755,0,0,1,0-2.482,1.755,1.755,0,0,1,2.482,0" transform="translate(-230.193 220.44)" fill="#ee3e96"/>
      <path id="패스_19521" data-name="패스 19521" d="M614.761-335.391a1.7,1.7,0,0,1-1.7,1.7,1.7,1.7,0,0,1-1.7-1.7,1.7,1.7,0,0,1,1.7-1.7,1.7,1.7,0,0,1,1.7,1.7" transform="translate(-562.249 339.307)" fill="#f58233"/>
    </g>
    <g id="그룹_13896" data-name="그룹 13896" transform="translate(66.016 13.052)">
      <path id="패스_19522" data-name="패스 19522" d="M11.341-108.424l-.286.3v.787h-.439v-2.524h.439v1.184l.243-.3.738-.884h.53l-.938,1.118.992,1.406H12.1Zm1.839.172a.754.754,0,0,0,.12.453.39.39,0,0,0,.333.164.384.384,0,0,0,.332-.167.834.834,0,0,0,.119-.487.746.746,0,0,0-.122-.451.39.39,0,0,0-.332-.166.387.387,0,0,0-.328.164.819.819,0,0,0-.121.49m-.421-.036a1.108,1.108,0,0,1,.109-.5.8.8,0,0,1,.307-.34.865.865,0,0,1,.454-.119.819.819,0,0,1,.616.245.959.959,0,0,1,.256.648l0,.1a1.116,1.116,0,0,1-.107.5.788.788,0,0,1-.305.338.869.869,0,0,1-.458.12.814.814,0,0,1-.635-.264,1.013,1.013,0,0,1-.238-.7Zm3.153-.536a1.031,1.031,0,0,0-.171-.014.386.386,0,0,0-.39.222v1.283h-.421v-1.875h.4l.01.21a.474.474,0,0,1,.423-.244.394.394,0,0,1,.149.024Zm1.08-.081a.354.354,0,0,0-.28.121.631.631,0,0,0-.136.338h.8v-.031a.511.511,0,0,0-.113-.32.352.352,0,0,0-.274-.108m.05,1.607a.872.872,0,0,1-.649-.252.916.916,0,0,1-.249-.672v-.052a1.127,1.127,0,0,1,.108-.5.823.823,0,0,1,.3-.344.8.8,0,0,1,.437-.123.736.736,0,0,1,.592.245,1.033,1.033,0,0,1,.209.692v.17H16.568a.563.563,0,0,0,.155.367.467.467,0,0,0,.343.135.571.571,0,0,0,.471-.234l.227.217a.759.759,0,0,1-.3.261.942.942,0,0,1-.422.093m1.808-.338a.481.481,0,0,0,.235-.061.4.4,0,0,0,.165-.163v-.354h-.227a.622.622,0,0,0-.352.082.264.264,0,0,0-.118.23.247.247,0,0,0,.081.193.312.312,0,0,0,.216.072m.463.3a.653.653,0,0,1-.048-.175.656.656,0,0,1-.492.21.661.661,0,0,1-.461-.161.516.516,0,0,1-.179-.4.532.532,0,0,1,.223-.46,1.078,1.078,0,0,1,.637-.16h.258v-.123a.33.33,0,0,0-.081-.233.324.324,0,0,0-.248-.087.369.369,0,0,0-.235.072.222.222,0,0,0-.092.183h-.421a.467.467,0,0,1,.1-.289.681.681,0,0,1,.278-.21.974.974,0,0,1,.393-.076.786.786,0,0,1,.525.166.59.59,0,0,1,.2.465v.846a.958.958,0,0,0,.071.4v.029Zm2.305-1.289h.527a.52.52,0,0,0,.357-.11.4.4,0,0,0,.123-.318.436.436,0,0,0-.125-.327.481.481,0,0,0-.343-.126h-.539Zm0,.354v.936h-.439v-2.524h.966a.977.977,0,0,1,.672.22.741.741,0,0,1,.249.583.716.716,0,0,1-.243.578,1.023,1.023,0,0,1-.682.207Zm2.309.936H23.5V-110h.421Zm1.188-.3a.479.479,0,0,0,.235-.061.4.4,0,0,0,.166-.163v-.354h-.227a.621.621,0,0,0-.352.082.264.264,0,0,0-.118.23.247.247,0,0,0,.081.193.312.312,0,0,0,.216.072m.463.3a.646.646,0,0,1-.048-.175.656.656,0,0,1-.492.21.661.661,0,0,1-.461-.161.517.517,0,0,1-.179-.4.533.533,0,0,1,.223-.46,1.079,1.079,0,0,1,.637-.16h.258v-.123a.329.329,0,0,0-.082-.233.322.322,0,0,0-.248-.087.371.371,0,0,0-.236.072.223.223,0,0,0-.092.183h-.421a.467.467,0,0,1,.1-.289.683.683,0,0,1,.278-.21.972.972,0,0,1,.392-.076.786.786,0,0,1,.525.166.589.589,0,0,1,.2.465v.846a.957.957,0,0,0,.071.4v.029Zm1.262-1.875.012.217a.674.674,0,0,1,.546-.251q.586,0,.6.671v1.239h-.421v-1.215a.386.386,0,0,0-.077-.264.325.325,0,0,0-.252-.086.406.406,0,0,0-.38.231v1.335h-.421v-1.875Zm2.045,0,.012.217a.674.674,0,0,1,.546-.251q.586,0,.6.671v1.239h-.421v-1.215a.386.386,0,0,0-.077-.264.325.325,0,0,0-.252-.086.406.406,0,0,0-.38.231v1.335h-.421v-1.875Zm2.1,1.875h-.421v-1.875h.421Zm-.447-2.364a.226.226,0,0,1,.061-.162.232.232,0,0,1,.176-.065.235.235,0,0,1,.177.065.225.225,0,0,1,.062.162.219.219,0,0,1-.062.16.236.236,0,0,1-.177.064.233.233,0,0,1-.176-.064.22.22,0,0,1-.061-.16m1.368.489.012.217a.674.674,0,0,1,.546-.251q.586,0,.6.671v1.239h-.421v-1.215a.386.386,0,0,0-.077-.264.325.325,0,0,0-.252-.086.405.405,0,0,0-.379.231v1.335h-.421v-1.875Zm2,.96a.755.755,0,0,0,.115.445.371.371,0,0,0,.32.162.405.405,0,0,0,.378-.219v-.825a.4.4,0,0,0-.374-.213.373.373,0,0,0-.323.165.847.847,0,0,0-.115.485m-.419-.036a1.1,1.1,0,0,1,.205-.7.659.659,0,0,1,.545-.261.617.617,0,0,1,.5.224l.019-.189h.38v1.818a.755.755,0,0,1-.23.582.874.874,0,0,1-.62.213,1,1,0,0,1-.4-.086.714.714,0,0,1-.3-.224l.2-.253a.6.6,0,0,0,.478.23.466.466,0,0,0,.331-.113.436.436,0,0,0,.121-.334v-.126a.621.621,0,0,1-.485.2.658.658,0,0,1-.538-.262,1.133,1.133,0,0,1-.209-.724m3.648-.976a.644.644,0,0,0,.179.366l.192-.132.054-.043a.312.312,0,0,0,.107-.244.225.225,0,0,0-.074-.169.265.265,0,0,0-.189-.07.247.247,0,0,0-.2.083.307.307,0,0,0-.073.21m.232,1.626a.644.644,0,0,0,.4-.142l-.551-.65-.054.038a.45.45,0,0,0-.208.36.378.378,0,0,0,.113.284.414.414,0,0,0,.3.109m-.835-.38a.577.577,0,0,1,.1-.321,1.5,1.5,0,0,1,.376-.348A1.585,1.585,0,0,1,36.8-109a.615.615,0,0,1-.058-.251.618.618,0,0,1,.18-.469.674.674,0,0,1,.485-.173.64.64,0,0,1,.452.162.523.523,0,0,1,.176.4.553.553,0,0,1-.08.29.946.946,0,0,1-.262.264l-.171.125.487.575a1.007,1.007,0,0,0,.106-.463h.366a1.259,1.259,0,0,1-.219.764l.371.439h-.489L38-107.5a1.044,1.044,0,0,1-.645.2.872.872,0,0,1-.6-.2.659.659,0,0,1-.224-.517m4.878-.445H40.372v.773h1.211v.354h-1.65v-2.524h1.638v.354h-1.2v.7h1.037Zm1.179.593.4-1.341h.435l-.65,1.875H42.4l-.655-1.875h.437Zm1.8.231a.48.48,0,0,0,.235-.061.4.4,0,0,0,.166-.163v-.354h-.227a.621.621,0,0,0-.352.082.264.264,0,0,0-.118.23.246.246,0,0,0,.081.193.312.312,0,0,0,.216.072m.463.3a.643.643,0,0,1-.049-.175.656.656,0,0,1-.492.21.661.661,0,0,1-.461-.161.516.516,0,0,1-.179-.4.533.533,0,0,1,.223-.46,1.079,1.079,0,0,1,.637-.16h.258v-.123a.329.329,0,0,0-.082-.233.324.324,0,0,0-.248-.087.37.37,0,0,0-.236.072.223.223,0,0,0-.092.183h-.421a.469.469,0,0,1,.1-.289.681.681,0,0,1,.278-.21.973.973,0,0,1,.393-.076.786.786,0,0,1,.525.166.59.59,0,0,1,.2.465v.846a.961.961,0,0,0,.071.4v.029Zm1.319,0h-.421V-110h.421Zm1.665-.184a.653.653,0,0,1-.527.218.582.582,0,0,1-.462-.179.758.758,0,0,1-.157-.516v-1.215h.421V-108q0,.357.3.357a.417.417,0,0,0,.414-.22v-1.347h.421v1.875h-.4Zm1.565-.119a.479.479,0,0,0,.235-.061.406.406,0,0,0,.166-.163v-.354h-.227a.622.622,0,0,0-.352.082.264.264,0,0,0-.118.23.246.246,0,0,0,.081.193.312.312,0,0,0,.216.072m.463.3a.651.651,0,0,1-.049-.175.656.656,0,0,1-.492.21.662.662,0,0,1-.461-.161.517.517,0,0,1-.179-.4.533.533,0,0,1,.223-.46,1.079,1.079,0,0,1,.637-.16H49.8v-.123a.329.329,0,0,0-.082-.233.323.323,0,0,0-.248-.087.37.37,0,0,0-.236.072.223.223,0,0,0-.092.183H48.72a.467.467,0,0,1,.1-.289.68.68,0,0,1,.278-.21.973.973,0,0,1,.393-.076.786.786,0,0,1,.525.166.589.589,0,0,1,.2.465v.846a.957.957,0,0,0,.071.4v.029Zm1.4-2.331v.456h.331v.312h-.331v1.047a.23.23,0,0,0,.043.155.2.2,0,0,0,.152.048.642.642,0,0,0,.147-.017v.326a1.037,1.037,0,0,1-.277.04q-.485,0-.485-.536V-108.9h-.308v-.312h.308v-.456Zm1.172,2.331h-.421v-1.875h.421Zm-.447-2.364a.226.226,0,0,1,.062-.162.231.231,0,0,1,.176-.065.234.234,0,0,1,.177.065.224.224,0,0,1,.062.162.219.219,0,0,1-.062.16.235.235,0,0,1-.177.064.232.232,0,0,1-.176-.064.221.221,0,0,1-.062-.16m1.319,1.446a.754.754,0,0,0,.12.453.389.389,0,0,0,.333.164.385.385,0,0,0,.332-.167.835.835,0,0,0,.119-.487.745.745,0,0,0-.122-.451.39.39,0,0,0-.332-.166.386.386,0,0,0-.328.164.819.819,0,0,0-.121.49m-.421-.036a1.105,1.105,0,0,1,.109-.5.8.8,0,0,1,.307-.34.865.865,0,0,1,.454-.119.819.819,0,0,1,.616.245.959.959,0,0,1,.256.648l0,.1a1.114,1.114,0,0,1-.107.5.788.788,0,0,1-.305.338.87.87,0,0,1-.458.12.814.814,0,0,1-.635-.264,1.013,1.013,0,0,1-.238-.7Zm2.562-.92.012.217a.674.674,0,0,1,.546-.251q.586,0,.6.671v1.239h-.421v-1.215a.387.387,0,0,0-.077-.264.326.326,0,0,0-.252-.086.405.405,0,0,0-.379.231v1.335h-.421v-1.875Zm3.113,1.875h-.437v-2.524h.437Zm.96-1.875.012.217a.675.675,0,0,1,.546-.251q.586,0,.6.671v1.239h-.421v-1.215a.386.386,0,0,0-.077-.264.325.325,0,0,0-.252-.086.406.406,0,0,0-.38.231v1.335h-.421v-1.875Zm2.706,1.366a.191.191,0,0,0-.093-.172.984.984,0,0,0-.308-.1,1.6,1.6,0,0,1-.359-.114.479.479,0,0,1-.315-.442.5.5,0,0,1,.2-.406.809.809,0,0,1,.52-.163.843.843,0,0,1,.543.166.528.528,0,0,1,.207.432H62.2a.261.261,0,0,0-.09-.2.346.346,0,0,0-.239-.08.375.375,0,0,0-.226.064.2.2,0,0,0-.087.172.171.171,0,0,0,.082.151,1.119,1.119,0,0,0,.329.108,1.554,1.554,0,0,1,.389.13.551.551,0,0,1,.21.181.464.464,0,0,1,.069.257.488.488,0,0,1-.21.41.893.893,0,0,1-.549.157.97.97,0,0,1-.411-.083.676.676,0,0,1-.281-.229.541.541,0,0,1-.1-.314h.409a.3.3,0,0,0,.113.23.437.437,0,0,0,.276.081.426.426,0,0,0,.253-.063.2.2,0,0,0,.087-.166m1.38-1.822v.456h.331v.312H63.6v1.047a.23.23,0,0,0,.042.155.2.2,0,0,0,.152.048.643.643,0,0,0,.147-.017v.326a1.036,1.036,0,0,1-.277.04q-.485,0-.485-.536V-108.9h-.308v-.312h.308v-.456Zm1.172,2.331h-.421v-1.875h.421Zm-.447-2.364a.226.226,0,0,1,.062-.162.231.231,0,0,1,.176-.065.234.234,0,0,1,.177.065.224.224,0,0,1,.062.162.219.219,0,0,1-.062.16.235.235,0,0,1-.177.064.232.232,0,0,1-.176-.064.22.22,0,0,1-.062-.16m1.5.033v.456h.331v.312H65.83v1.047a.23.23,0,0,0,.042.155.2.2,0,0,0,.152.048.643.643,0,0,0,.147-.017v.326a1.036,1.036,0,0,1-.277.04q-.485,0-.485-.536V-108.9H65.1v-.312h.308v-.456Zm1.86,2.148a.654.654,0,0,1-.527.218.582.582,0,0,1-.462-.179.758.758,0,0,1-.157-.516v-1.215h.421V-108q0,.357.3.357a.416.416,0,0,0,.414-.22v-1.347H68.1v1.875h-.4Zm1.435-2.148v.456h.331v.312h-.331v1.047a.231.231,0,0,0,.042.155.2.2,0,0,0,.152.048.642.642,0,0,0,.147-.017v.326a1.036,1.036,0,0,1-.277.04q-.485,0-.485-.536V-108.9H68.4v-.312H68.7v-.456Zm1.5.759a.354.354,0,0,0-.28.121.63.63,0,0,0-.136.338h.8v-.031a.514.514,0,0,0-.113-.32.352.352,0,0,0-.274-.108m.05,1.607a.873.873,0,0,1-.649-.252.916.916,0,0,1-.249-.672v-.052a1.125,1.125,0,0,1,.108-.5.821.821,0,0,1,.3-.344.8.8,0,0,1,.437-.123.736.736,0,0,1,.592.245,1.033,1.033,0,0,1,.209.692v.17H70.2a.562.562,0,0,0,.155.367.466.466,0,0,0,.343.135.571.571,0,0,0,.471-.234l.227.217a.758.758,0,0,1-.3.261.944.944,0,0,1-.422.093m2.447-.953a.754.754,0,0,0,.12.453.389.389,0,0,0,.333.164.385.385,0,0,0,.332-.167.835.835,0,0,0,.119-.487.746.746,0,0,0-.122-.451.39.39,0,0,0-.332-.166.387.387,0,0,0-.328.164.819.819,0,0,0-.121.49m-.421-.036a1.105,1.105,0,0,1,.109-.5.8.8,0,0,1,.307-.34.865.865,0,0,1,.454-.119.819.819,0,0,1,.616.245.959.959,0,0,1,.256.648l0,.1a1.114,1.114,0,0,1-.107.5.787.787,0,0,1-.305.338.87.87,0,0,1-.458.12.814.814,0,0,1-.635-.264,1.013,1.013,0,0,1-.238-.7Zm2.319.955V-108.9h-.286v-.312h.286v-.172a.644.644,0,0,1,.173-.482.664.664,0,0,1,.485-.17.964.964,0,0,1,.236.031l-.011.329a.821.821,0,0,0-.161-.014.27.27,0,0,0-.3.31v.166h.381v.312H75.44v1.563Zm2.64,0h-.437v-2.524h.437Zm.96-1.875.012.217a.674.674,0,0,1,.546-.251q.586,0,.6.671v1.239h-.421v-1.215a.387.387,0,0,0-.077-.264.326.326,0,0,0-.252-.086.405.405,0,0,0-.379.231v1.335h-.421v-1.875Zm2,.96a.78.78,0,0,0,.11.446.357.357,0,0,0,.313.16.4.4,0,0,0,.378-.231v-.8a.392.392,0,0,0-.374-.225.36.36,0,0,0-.316.162.869.869,0,0,0-.111.488m-.421-.036a1.114,1.114,0,0,1,.2-.7.644.644,0,0,1,.539-.263.612.612,0,0,1,.482.208V-110h.421v2.662h-.381l-.021-.194a.621.621,0,0,1-.5.229.64.64,0,0,1-.533-.265,1.155,1.155,0,0,1-.2-.721m3.29.768a.653.653,0,0,1-.527.218.582.582,0,0,1-.462-.179.758.758,0,0,1-.157-.516v-1.215h.421V-108q0,.357.3.357a.416.416,0,0,0,.414-.22v-1.347h.421v1.875h-.4Zm1.959-.326a.191.191,0,0,0-.093-.172.985.985,0,0,0-.308-.1,1.6,1.6,0,0,1-.359-.114.479.479,0,0,1-.315-.442.5.5,0,0,1,.2-.406.809.809,0,0,1,.52-.163.843.843,0,0,1,.543.166.529.529,0,0,1,.207.432h-.421a.26.26,0,0,0-.09-.2.346.346,0,0,0-.239-.08.374.374,0,0,0-.226.064.2.2,0,0,0-.087.172.171.171,0,0,0,.081.151,1.122,1.122,0,0,0,.33.108,1.558,1.558,0,0,1,.389.13.553.553,0,0,1,.21.181.464.464,0,0,1,.068.257.488.488,0,0,1-.21.41.894.894,0,0,1-.55.157.969.969,0,0,1-.411-.083.678.678,0,0,1-.281-.229.542.542,0,0,1-.1-.314h.409a.3.3,0,0,0,.113.23.438.438,0,0,0,.276.081.426.426,0,0,0,.253-.063.2.2,0,0,0,.087-.166m1.38-1.822v.456h.331v.312h-.331v1.047a.231.231,0,0,0,.042.155.2.2,0,0,0,.152.048.642.642,0,0,0,.147-.017v.326a1.038,1.038,0,0,1-.277.04q-.485,0-.485-.536V-108.9h-.308v-.312H86.4v-.456Zm1.705.841a1.032,1.032,0,0,0-.171-.014.386.386,0,0,0-.39.222v1.283h-.421v-1.875h.4l.01.21a.474.474,0,0,1,.423-.244.392.392,0,0,1,.149.024Zm.785,1.491h-.421v-1.875h.421Zm-.447-2.364a.226.226,0,0,1,.061-.162.231.231,0,0,1,.176-.065.234.234,0,0,1,.177.065.224.224,0,0,1,.062.162.218.218,0,0,1-.062.16.235.235,0,0,1-.177.064.232.232,0,0,1-.176-.064.221.221,0,0,1-.061-.16m1.634,2.061a.481.481,0,0,0,.235-.061.4.4,0,0,0,.166-.163v-.354h-.227a.621.621,0,0,0-.352.082.264.264,0,0,0-.118.23.247.247,0,0,0,.081.193.313.313,0,0,0,.216.072m.463.3a.636.636,0,0,1-.049-.175.656.656,0,0,1-.492.21.661.661,0,0,1-.461-.161.516.516,0,0,1-.179-.4.532.532,0,0,1,.223-.46,1.079,1.079,0,0,1,.637-.16H90.9v-.123a.33.33,0,0,0-.082-.233.324.324,0,0,0-.248-.087.37.37,0,0,0-.235.072.222.222,0,0,0-.092.183h-.421a.468.468,0,0,1,.1-.289.681.681,0,0,1,.278-.21.974.974,0,0,1,.393-.076.786.786,0,0,1,.525.166.59.59,0,0,1,.2.465v.846a.958.958,0,0,0,.071.4v.029Zm1.319,0h-.421V-110h.421Zm3.245-2.17H94.74v2.17H94.3v-2.17h-.78v-.354h2Zm.983.6a.354.354,0,0,0-.28.121.629.629,0,0,0-.136.338h.8v-.031a.511.511,0,0,0-.113-.32.352.352,0,0,0-.274-.108m.05,1.607a.873.873,0,0,1-.649-.252.916.916,0,0,1-.249-.672v-.052a1.127,1.127,0,0,1,.108-.5.823.823,0,0,1,.3-.344.8.8,0,0,1,.437-.123A.736.736,0,0,1,97.1-109a1.032,1.032,0,0,1,.209.692v.17H96.086a.563.563,0,0,0,.155.367.467.467,0,0,0,.343.135.571.571,0,0,0,.471-.234l.227.217a.757.757,0,0,1-.3.261.944.944,0,0,1-.422.093m1.92-.336a.38.38,0,0,0,.262-.092.314.314,0,0,0,.111-.227h.4a.619.619,0,0,1-.109.327.716.716,0,0,1-.277.24.823.823,0,0,1-.378.088.8.8,0,0,1-.624-.254,1.011,1.011,0,0,1-.231-.7v-.043a1,1,0,0,1,.229-.686.793.793,0,0,1,.624-.257.769.769,0,0,1,.545.2.7.7,0,0,1,.221.512h-.4a.387.387,0,0,0-.11-.265.354.354,0,0,0-.263-.1.37.37,0,0,0-.316.148.757.757,0,0,0-.113.45v.068a.769.769,0,0,0,.11.455.371.371,0,0,0,.318.15M100.054-109a.659.659,0,0,1,.522-.239q.6,0,.608.685v1.225h-.421v-1.21a.371.371,0,0,0-.084-.275.344.344,0,0,0-.247-.081.406.406,0,0,0-.378.225v1.34h-.421V-110h.421Zm2.017-.2.012.217a.674.674,0,0,1,.546-.251q.586,0,.6.671v1.239H102.8v-1.215a.387.387,0,0,0-.077-.264.326.326,0,0,0-.253-.086.405.405,0,0,0-.379.231v1.335h-.421v-1.875Zm2,.957a.756.756,0,0,0,.119.453.389.389,0,0,0,.333.164.385.385,0,0,0,.332-.167.835.835,0,0,0,.119-.487.745.745,0,0,0-.122-.451.39.39,0,0,0-.332-.166.387.387,0,0,0-.328.164.819.819,0,0,0-.121.49m-.421-.036a1.105,1.105,0,0,1,.109-.5.8.8,0,0,1,.307-.34.865.865,0,0,1,.454-.119.819.819,0,0,1,.616.245.959.959,0,0,1,.256.648l0,.1a1.114,1.114,0,0,1-.107.5.788.788,0,0,1-.305.338.871.871,0,0,1-.459.12.814.814,0,0,1-.635-.264,1.013,1.013,0,0,1-.238-.7Zm2.619.955h-.421V-110h.421Zm.872-.918a.754.754,0,0,0,.12.453.389.389,0,0,0,.333.164.384.384,0,0,0,.332-.167.833.833,0,0,0,.119-.487.746.746,0,0,0-.122-.451.39.39,0,0,0-.332-.166.386.386,0,0,0-.328.164.819.819,0,0,0-.121.49m-.421-.036a1.108,1.108,0,0,1,.109-.5.8.8,0,0,1,.307-.34.865.865,0,0,1,.454-.119.819.819,0,0,1,.616.245.959.959,0,0,1,.256.648l0,.1a1.114,1.114,0,0,1-.107.5.786.786,0,0,1-.3.338.871.871,0,0,1-.458.12.814.814,0,0,1-.635-.264,1.013,1.013,0,0,1-.238-.7Zm2.517.04a.753.753,0,0,0,.115.445.37.37,0,0,0,.32.162.405.405,0,0,0,.378-.219v-.825a.4.4,0,0,0-.374-.213.373.373,0,0,0-.323.165.845.845,0,0,0-.115.485m-.419-.036a1.1,1.1,0,0,1,.205-.7.659.659,0,0,1,.545-.261.617.617,0,0,1,.5.224l.019-.189h.379v1.818a.755.755,0,0,1-.23.582.874.874,0,0,1-.62.213,1,1,0,0,1-.4-.086.715.715,0,0,1-.3-.224l.2-.253a.6.6,0,0,0,.478.23.466.466,0,0,0,.331-.113.436.436,0,0,0,.121-.334v-.126a.621.621,0,0,1-.485.2.658.658,0,0,1-.538-.262,1.133,1.133,0,0,1-.209-.724m2.813.348.381-1.272h.449l-.745,2.16a.606.606,0,0,1-.582.473.747.747,0,0,1-.2-.031v-.327l.08.005a.412.412,0,0,0,.24-.058.386.386,0,0,0,.127-.195l.061-.161-.659-1.865h.454Zm-18.338-9.276v-5.393H91.912v.991h-1.3v1.242h1.3v.927h-1.3v1.242h1.3v.991Zm-5.128-1.341h-.946v-2.81h.946Zm2.044-2.81v-1.242H85.17v1.242h.752v2.81H85.17v1.242H90.2v-1.242h-.752v-2.81Zm.665,7.767a1.007,1.007,0,0,1-1.006-1.006,1.007,1.007,0,0,1,1.006-1.006,1.007,1.007,0,0,1,1.006,1.006,1.007,1.007,0,0,1-1.006,1.006m0-3.327a2.324,2.324,0,0,0-2.321,2.321,2.323,2.323,0,0,0,2.321,2.321A2.324,2.324,0,0,0,93.19-114.6a2.324,2.324,0,0,0-2.321-2.321M27.3-117.248v-1.242H18.849v1.242h3.536v1.4H20.317v1.242h4.193v2.2h1.376v-3.051a.388.388,0,0,0-.388-.387H23.762v-1.4Zm-1.412-1.919v-3.051a.388.388,0,0,0-.388-.388H20.317v1.242H24.51v2.2Zm28.673,3.612h1.376v-7.051H54.559Zm-2.188-.555v-6.109a.388.388,0,0,0-.388-.387h-3.99v1.242h3v5.254Zm20.076.555h1.376v-7.051H72.447Zm-2.189-.555v-6.109a.388.388,0,0,0-.387-.387h-3.99v1.242h3v5.254Zm-39.306-6.637a.687.687,0,0,0-.625.4l-2.158,4.772,1.249.564,1.534-3.408,1.534,3.408,1.249-.564-2.158-4.772a.687.687,0,0,0-.624-.4m.883,10.334H36.24v-1.242H32.824V-115.8H31.448v3a.388.388,0,0,0,.387.387m5.8-10.192H35.168a.388.388,0,0,0-.388.387v5.579h1.376v-4.725h1.478Zm-25.615,2.921a.858.858,0,0,1,.857.857.858.858,0,0,1-.857.856.857.857,0,0,1-.856-.856.858.858,0,0,1,.856-.856m0,2.99a2.136,2.136,0,0,0,2.134-2.134,2.134,2.134,0,0,0-.731-1.607l-.053-.046h1.391v-1.242H12.707v-1.125H11.331v1.125H9.279v1.242h1.391l-.053.046a2.134,2.134,0,0,0-.731,1.607,2.136,2.136,0,0,0,2.134,2.134m.737,4.281h4.4v-1.242H13.745V-115.8H12.368v3a.388.388,0,0,0,.388.387m5.8-10.192H16.088a.388.388,0,0,0-.387.387v5.579h1.376v-4.725h1.478Zm28.12,5.062v-5.062H45.3v1.775H43.775v1.242H45.3v2.044Zm-5.913-1.371a1.128,1.128,0,0,1-1.126-1.126,1.128,1.128,0,0,1,1.126-1.126,1.128,1.128,0,0,1,1.126,1.126,1.128,1.128,0,0,1-1.126,1.126m0-3.668a2.545,2.545,0,0,0-2.542,2.542,2.545,2.545,0,0,0,2.542,2.542,2.545,2.545,0,0,0,2.542-2.542,2.545,2.545,0,0,0-2.542-2.542m2.58,7.917H45.3v1.011H43.342Zm-.989,2.253h4.321V-116.8H45.3v.894H43.342v-.894H41.966v4a.388.388,0,0,0,.387.388m15.634-7.6.953.989,2.532-2.153L64-119.028l.953-.989-3.042-2.568a.685.685,0,0,0-.884,0Zm1.088,7.6h5.181v-1.158H60.063v-.409h4.192v-2.337a.388.388,0,0,0-.387-.388H62.16v-.663H65.7v-1.242H57.247v1.242h3.536v.663h-2.1v1.158H62.88v.409H58.687v2.337a.388.388,0,0,0,.388.388m22.969-3.762H83.42v-6.43H82.043Zm-3.718-4.479a.74.74,0,0,1,.739.739.74.74,0,0,1-.739.74.74.74,0,0,1-.739-.74.74.74,0,0,1,.739-.739m-2.63-.062h.838l-.015.036a1.951,1.951,0,0,0-.155.765,1.975,1.975,0,0,0,1.257,1.831l.017.006v.592H75.48v1.242h5.691v-1.242H79.013v-.592l.017-.007a1.975,1.975,0,0,0,1.258-1.832,1.951,1.951,0,0,0-.155-.765l-.015-.036h.838v-1.242H79.013v-.89H77.637v.89H75.695Zm7.725,8.3v-2.8a.388.388,0,0,0-.388-.387H78.711v1.242h3.332v1.944Zm15.527-3.655v-6.15a.388.388,0,0,0-.387-.387h-3.99v1.242h3v5.3Zm4.881-6.537h-2.46a.388.388,0,0,0-.388.387v6.66h1.377v-5.806h1.471ZM110-117.594h-5.47v1.242h1.214v1.776h1.376v-1.776H110Zm-2.768-1.883a.874.874,0,0,1-.873-.873.874.874,0,0,1,.873-.873.874.874,0,0,1,.873.873.874.874,0,0,1-.873.873m0-3.172a2.3,2.3,0,0,0-2.3,2.3,2.3,2.3,0,0,0,2.3,2.3,2.3,2.3,0,0,0,2.3-2.3,2.3,2.3,0,0,0-2.3-2.3" transform="translate(-9.279 122.848)" fill="#1d398d"/>
      <path id="패스_19523" data-name="패스 19523" d="M695.811-110.965h4.4v-1.242H696.8v-1.6h-1.376v2.457a.388.388,0,0,0,.388.387m4.321-3.939v-5.866a.388.388,0,0,0-.388-.388H697.5v1.242h1.258v5.011Z" transform="translate(-596.954 121.399)" fill="#1d398d"/>
    </g>
  </g>
</svg>
